<?xml version="1.0" ?><!DOCTYPE svg  PUBLIC '-//W3C//DTD SVG 1.1//EN'  'http://www.w3.org/Graphics/SVG/1.1/DTD/svg11.dtd'><svg enable-background="new 0 0 512 512" height="512px" version="1.1" viewBox="0 0 512 512" width="512px" xml:space="preserve" xmlns="http://www.w3.org/2000/svg" xmlns:xlink="http://www.w3.org/1999/xlink"><g id="Layer_1"/><g id="Colors"><rect fill="#FFFFFF" height="267" stroke="#231F20" stroke-miterlimit="10" width="267" x="-779" y="-512"/><rect fill="#FBD50A" height="267" stroke="#231F20" stroke-miterlimit="10" width="267" x="-779" y="-244"/><rect fill="#C61934" height="267" stroke="#231F20" stroke-miterlimit="10" width="267" x="-779" y="23"/><rect fill="#96212C" height="267" stroke="#231F20" stroke-miterlimit="10" width="267" x="-779" y="290"/><rect fill="#202C3C" height="267" stroke="#231F20" stroke-miterlimit="10" width="267" x="-779" y="557"/><rect fill="#ED1C24" height="267" stroke="#231F20" stroke-miterlimit="10" width="267" x="-779" y="825"/></g><g id="Icon"><ellipse cx="258.375" cy="255.649" fill="#FBD50A" rx="254.776" ry="252.774"/></g><g id="Layer_5"><g><path d="M162.125,368.649c0,8.284,6.716,15,15,15h161.5c8.284,0,15-6.716,15-15v-226c0-8.284-6.716-15-15-15    h-161.5c-8.284,0-15,6.716-15,15V368.649z" fill="#96212C"/></g><g><polygon fill="#E2E2E2" points="173.687,374 173.687,374 342.063,374 342.063,374 342.063,136.649 342.063,136.649     173.687,136.649 173.687,136.649   "/></g><rect fill="#202C3C" height="9.333" width="74.667" x="218.333" y="133"/><g><path d="M240.917,132.333c0,2.761,2.239,5,5,5h20c2.761,0,5-2.239,5-5V128c0-2.761-2.239-5-5-5h-20    c-2.761,0-5,2.239-5,5V132.333z" fill="#202C3C"/></g><rect fill="#E2E2E2" height="2.833" width="22.333" x="244.75" y="127.333"/><line fill="none" stroke="#202C3C" stroke-linecap="round" stroke-miterlimit="10" stroke-width="5" x1="189.313" x2="220.438" y1="179" y2="179"/><line fill="none" stroke="#BE1E2D" stroke-linecap="round" stroke-miterlimit="10" stroke-width="5" x1="198.813" x2="295.938" y1="189" y2="189"/><line fill="none" stroke="#FBD50A" stroke-linecap="round" stroke-miterlimit="10" stroke-width="5" x1="208.563" x2="278.688" y1="209" y2="209"/><line fill="none" stroke="#BE1E2D" stroke-linecap="round" stroke-miterlimit="10" stroke-width="5" x1="228.563" x2="273.688" y1="219" y2="219"/><line fill="none" stroke="#202C3C" stroke-linecap="round" stroke-miterlimit="10" stroke-width="5" x1="208.563" x2="330.938" y1="229" y2="229"/><line fill="none" stroke="#9EA3A6" stroke-linecap="round" stroke-miterlimit="10" stroke-width="5" x1="208.563" x2="317.938" y1="239" y2="239"/><line fill="none" stroke="#FBD50A" stroke-linecap="round" stroke-miterlimit="10" stroke-width="5" x1="208.563" x2="253.688" y1="249" y2="249"/><line fill="none" stroke="#FBD50A" stroke-linecap="round" stroke-miterlimit="10" stroke-width="5" x1="208.563" x2="278.688" y1="259" y2="259"/><line fill="none" stroke="#BE1E2D" stroke-linecap="round" stroke-miterlimit="10" stroke-width="5" x1="208.563" x2="317.938" y1="269" y2="269"/><line fill="none" stroke="#BE1E2D" stroke-linecap="round" stroke-miterlimit="10" stroke-width="5" x1="208.563" x2="330.938" y1="279" y2="279"/><line fill="none" stroke="#9EA3A6" stroke-linecap="round" stroke-miterlimit="10" stroke-width="5" x1="208.563" x2="317.938" y1="289" y2="289"/></g></svg>